<svg width="20" height="21" viewBox="0 0 20 21" fill="none" xmlns="http://www.w3.org/2000/svg">
<path d="M19 12.5C18.7348 12.5 18.4804 12.6054 18.2929 12.7929C18.1054 12.9804 18 13.2348 18 13.5V17.5C18 17.7652 17.8946 18.0196 17.7071 18.2071C17.5196 18.3946 17.2652 18.5 17 18.5H3C2.73478 18.5 2.48043 18.3946 2.29289 18.2071C2.10536 18.0196 2 17.7652 2 17.5V13.5C2 13.2348 1.89464 12.9804 1.70711 12.7929C1.51957 12.6054 1.26522 12.5 1 12.5C0.734784 12.5 0.48043 12.6054 0.292893 12.7929C0.105357 12.9804 0 13.2348 0 13.5V17.5C0 18.2956 0.316071 19.0587 0.87868 19.6213C1.44129 20.1839 2.20435 20.5 3 20.5H17C17.7956 20.5 18.5587 20.1839 19.1213 19.6213C19.6839 19.0587 20 18.2956 20 17.5V13.5C20 13.2348 19.8946 12.9804 19.7071 12.7929C19.5196 12.6054 19.2652 12.5 19 12.5ZM9.29 14.21C9.3851 14.301 9.49725 14.3724 9.62 14.42C9.7397 14.4729 9.86913 14.5002 10 14.5002C10.1309 14.5002 10.2603 14.4729 10.38 14.42C10.5028 14.3724 10.6149 14.301 10.71 14.21L14.71 10.21C14.8983 10.0217 15.0041 9.7663 15.0041 9.5C15.0041 9.2337 14.8983 8.9783 14.71 8.79C14.5217 8.6017 14.2663 8.49591 14 8.49591C13.7337 8.49591 13.4783 8.6017 13.29 8.79L11 11.09V1.5C11 1.23478 10.8946 0.98043 10.7071 0.792893C10.5196 0.605357 10.2652 0.5 10 0.5C9.73478 0.5 9.48043 0.605357 9.29289 0.792893C9.10536 0.98043 9 1.23478 9 1.5V11.09L6.71 8.79C6.61676 8.69676 6.50607 8.6228 6.38425 8.57234C6.26243 8.52188 6.13186 8.49591 6 8.49591C5.86814 8.49591 5.73757 8.52188 5.61575 8.57234C5.49393 8.6228 5.38324 8.69676 5.29 8.79C5.19676 8.88324 5.1228 8.99393 5.07234 9.11575C5.02188 9.23757 4.99591 9.36814 4.99591 9.5C4.99591 9.63186 5.02188 9.76243 5.07234 9.88425C5.1228 10.0061 5.19676 10.1168 5.29 10.21L9.29 14.21Z" fill="#A53DFF"/>
</svg>
